<svg id="Layer_1" data-name="Layer 1" xmlns="http://www.w3.org/2000/svg" xmlns:xlink="http://www.w3.org/1999/xlink" viewBox="0 0 550 778">
  <defs>
    <style>
      .cls-1 {
        fill: none;
      }

      .cls-2 {
        clip-path: url(#clip-path);
      }
    </style>
    <clipPath id="clip-path" transform="translate(-322 -139)">
      <path class="cls-1" d="M494.46,297.18A426.75,426.75,0,0,0,571,302.39a427.5,427.5,0,0,0,67.86-6.94c0-27.76,1.74-53.78,1.74-81.54a11.64,11.64,0,0,0-1.74-6.94,11.32,11.32,0,0,0-3.48-3.47h7a20,20,0,0,1,3.48,5.2,20.48,20.48,0,0,1,1.74,10.41l-1.74,78.07a57.74,57.74,0,0,0,34.8,38.17,755.08,755.08,0,0,0-7,76.34c-.48,11.78-1.32,34.06,0,59,2.64,49.82,10.92,52.94,15.66,98.89,2.31,22.41,1,58.89-1.74,131.85-.64,17.36-1.28,31.75-1.74,41.64a197,197,0,0,0-22.62-3.47c-21.82-2.06-31.62.69-53.94,0-18.14-.56-14.88-2.47-34.8-3.47-21.47-1.07-23.65,1.24-55.67,1.73-21,.33-23.72-.6-45.24,0-14,.4-25.44,1.15-33.06,1.74-8.65-114.4-.94-175.2,8.7-209.93,3.7-13.3,13.55-43.91,12.18-81.54-1.4-38.57-5.22-59-5.22-59a216.21,216.21,0,0,1-3.48-24.29,202.16,202.16,0,0,1,0-33,39.34,39.34,0,0,0,34.8-34.7V215.64a19.62,19.62,0,0,1,1.74-6.94,19.84,19.84,0,0,1,3.48-5.2h5.22a19.31,19.31,0,0,0-3.48,5.2,19.68,19.68,0,0,0-1.74,8.68Z"/>
    </clipPath>
  </defs>
  <title>Untitled-6</title>
  <g class="cls-2">
    <image width="550" height="778" xlink:href="kledingberg.jpg"/>
  </g>
</svg>
